<svg width="28" height="28" viewBox="0 0 28 28" fill="none" xmlns="http://www.w3.org/2000/svg">
<path d="M5.83331 14.8861C5.83331 13.3021 5.83331 12.5101 6.15352 11.8139C6.47372 11.1177 7.07507 10.6022 8.27777 9.57134L9.44444 8.57134C11.6183 6.70803 12.7052 5.77637 14 5.77637C15.2947 5.77637 16.3817 6.70803 18.5555 8.57134L19.7222 9.57134C20.9249 10.6022 21.5262 11.1177 21.8464 11.8139C22.1666 12.5101 22.1666 13.3021 22.1666 14.8861V19.8333C22.1666 22.0331 22.1666 23.1331 21.4832 23.8165C20.7998 24.4999 19.1165 24.5 16.9166 24.5V18.0833H11.0833V24.5C8.88343 24.5 7.20015 24.4999 6.51673 23.8165C5.83331 23.1331 5.83331 22.0331 5.83331 19.8333V14.8861Z" fill="#8C9BD9"/>
<path d="M5.83331 14.8862C5.83331 13.3022 5.83331 12.5101 6.15352 11.8139C6.47372 11.1177 7.07507 10.6023 8.27777 9.57142L9.44444 8.57142C11.6183 6.7081 12.7052 5.77644 14 5.77644C15.2947 5.77644 16.3817 6.7081 18.5555 8.57142L19.7222 9.57142C20.9249 10.6023 21.5262 11.1177 21.8464 11.8139C22.1666 12.5101 22.1666 13.3022 22.1666 14.8862V19.8333C22.1666 22.0332 22.1666 23.1332 21.4832 23.8166C20.7998 24.5 19.6999 24.5 17.5 24.5H10.5C8.30009 24.5 7.20015 24.5 6.51673 23.8166C5.83331 23.1332 5.83331 22.0332 5.83331 19.8333V14.8862Z" stroke="white" stroke-width="1.2"/>
<path d="M16.9166 24.5V18.5C16.9166 17.9477 16.4689 17.5 15.9166 17.5H12.0833C11.531 17.5 11.0833 17.9477 11.0833 18.5V24.5" stroke="white" stroke-width="1.2" stroke-linecap="round" stroke-linejoin="round"/>
</svg>
