<svg width="28" height="28" viewBox="0 0 28 28" fill="none" xmlns="http://www.w3.org/2000/svg">
<path d="M22.5469 6.74067C23.3334 7.91772 23.3334 9.55626 23.3334 12.8333C23.3334 16.1104 23.3334 17.749 22.5469 18.926C22.2064 19.4355 21.7689 19.8731 21.2593 20.2135C20.2311 20.9006 18.8507 20.9874 16.3334 20.9984V21L15.0435 23.5797C14.6136 24.4396 13.3865 24.4396 12.9565 23.5797L11.6667 21V20.9984C9.14937 20.9874 7.76894 20.9006 6.74069 20.2135C6.23114 19.8731 5.79364 19.4355 5.45316 18.926C4.66669 17.749 4.66669 16.1104 4.66669 12.8333C4.66669 9.55626 4.66669 7.91772 5.45316 6.74067C5.79364 6.23112 6.23114 5.79362 6.74069 5.45314C7.91774 4.66667 9.55627 4.66667 12.8334 4.66667H15.1667C18.4438 4.66667 20.0823 4.66667 21.2593 5.45314C21.7689 5.79362 22.2064 6.23112 22.5469 6.74067Z" fill="#8C9BD9" stroke="white" stroke-width="1.2" stroke-linecap="round" stroke-linejoin="round"/>
<path d="M10.5 10.5L17.5 10.5" stroke="white" stroke-width="1.2" stroke-linecap="round" stroke-linejoin="round"/>
<path d="M10.5 15.1667H14" stroke="white" stroke-width="1.2" stroke-linecap="round" stroke-linejoin="round"/>
</svg>
