<svg width="28" height="28" viewBox="0 0 28 28" fill="none" xmlns="http://www.w3.org/2000/svg">
<path fill-rule="evenodd" clip-rule="evenodd" d="M14 24.5C19.799 24.5 24.5 19.799 24.5 14C24.5 8.20101 19.799 3.5 14 3.5C8.20101 3.5 3.5 8.20101 3.5 14C3.5 19.799 8.20101 24.5 14 24.5ZM16.0207 12.8333C15.4935 11.9202 13.1266 10.2834 11.8712 9.45629C11.5369 9.23606 11.1058 9.48496 11.1294 9.88456C11.218 11.3854 11.4521 14.2535 11.9793 15.1667C12.5065 16.0798 14.8734 17.7166 16.1288 18.5437C16.4631 18.7639 16.8942 18.515 16.8706 18.1154C16.782 16.6146 16.5479 13.7465 16.0207 12.8333Z" fill="#8C9BD9"/>
<path d="M11.8712 9.45629L11.5411 9.95732L11.5411 9.95732L11.8712 9.45629ZM11.1294 9.88456L11.7284 9.8492L11.7284 9.8492L11.1294 9.88456ZM16.1288 18.5437L15.7987 19.0447L15.7987 19.0447L16.1288 18.5437ZM16.8706 18.1154L17.4695 18.0801L17.4695 18.0801L16.8706 18.1154ZM23.9 14C23.9 19.4676 19.4676 23.9 14 23.9V25.1C20.1304 25.1 25.1 20.1304 25.1 14H23.9ZM14 4.1C19.4676 4.1 23.9 8.53238 23.9 14H25.1C25.1 7.86964 20.1304 2.9 14 2.9V4.1ZM4.1 14C4.1 8.53238 8.53238 4.1 14 4.1V2.9C7.86964 2.9 2.9 7.86964 2.9 14H4.1ZM14 23.9C8.53238 23.9 4.1 19.4676 4.1 14H2.9C2.9 20.1304 7.86964 25.1 14 25.1V23.9ZM11.5411 9.95732C12.1638 10.3676 13.0555 10.9743 13.8532 11.5881C14.2523 11.8952 14.6205 12.1984 14.917 12.4752C15.2236 12.7616 15.4157 12.9854 15.5011 13.1333L16.5403 12.5333C16.3621 12.2247 16.0607 11.9015 15.736 11.5982C15.4012 11.2855 15.0003 10.9566 14.5849 10.637C13.7535 9.99731 12.8341 9.37214 12.2013 8.95525L11.5411 9.95732ZM11.7284 9.8492C11.7292 9.86324 11.7258 9.88618 11.7127 9.90975C11.7007 9.93143 11.684 9.94731 11.6661 9.9576C11.6483 9.9679 11.6262 9.97442 11.6014 9.97403C11.5744 9.9736 11.5529 9.96506 11.5411 9.95732L12.2013 8.95525C11.4546 8.46331 10.4778 9.0273 10.5305 9.91991L11.7284 9.8492ZM12.4989 14.8667C12.4135 14.7187 12.3157 14.4404 12.221 14.0317C12.1295 13.6366 12.051 13.1661 11.9846 12.6669C11.8519 11.6692 11.7723 10.5936 11.7284 9.8492L10.5305 9.91991C10.5751 10.6763 10.6568 11.7852 10.7951 12.8251C10.8642 13.3446 10.9486 13.8562 11.052 14.3025C11.1523 14.7354 11.2815 15.158 11.4597 15.4667L12.4989 14.8667ZM16.4589 18.0427C15.8362 17.6324 14.9445 17.0257 14.1468 16.4119C13.7477 16.1048 13.3795 15.8016 13.083 15.5247C12.7764 15.2384 12.5843 15.0146 12.4989 14.8667L11.4597 15.4667C11.6379 15.7753 11.9393 16.0985 12.264 16.4018C12.5988 16.7145 12.9997 17.0434 13.4151 17.363C14.2465 18.0027 15.1659 18.6279 15.7987 19.0447L16.4589 18.0427ZM16.2716 18.1508C16.2708 18.1368 16.2742 18.1138 16.2873 18.0903C16.2993 18.0686 16.316 18.0527 16.3339 18.0424C16.3517 18.0321 16.3738 18.0256 16.3986 18.026C16.4256 18.0264 16.4471 18.0349 16.4589 18.0427L15.7987 19.0447C16.5454 19.5367 17.5222 18.9727 17.4695 18.0801L16.2716 18.1508ZM15.5011 13.1333C15.5865 13.2813 15.6843 13.5596 15.779 13.9683C15.8705 14.3634 15.949 14.8339 16.0154 15.3331C16.148 16.3308 16.2277 17.4064 16.2716 18.1508L17.4695 18.0801C17.4249 17.3237 17.3432 16.2148 17.2049 15.1749C17.1358 14.6554 17.0514 14.1438 16.948 13.6975C16.8477 13.2646 16.7185 12.842 16.5403 12.5333L15.5011 13.1333Z" fill="white"/>
</svg>
