<svg width="28" height="28" viewBox="0 0 28 28" fill="none" xmlns="http://www.w3.org/2000/svg">
<path d="M14 20C9.19997 20 7.33331 23.3333 6.99997 25C5.93331 24.5 4.03999 23.8 5 25L2.99997 22.5C3.16664 18.5 3.39997 9.8 2.99997 7C2.59997 4.2 4.83331 3.16667 5.99997 3H22C24 3 24.8333 4.66667 25 5.5V22.5L20.5 21L19 22C19.3333 21.3333 18.8 20 14 20Z" fill="#8C9BD9"/>
<rect x="2.83331" y="2.83331" width="22.3333" height="22.3333" rx="3.5" stroke="white"/>
<path d="M24.8498 22.7755C24.192 21.9353 23.199 21.3406 22.0659 21.1079C20.9327 20.8753 19.7411 21.0216 18.7248 21.5181" stroke="white"/>
<ellipse cx="14" cy="11.6667" rx="3.5" ry="3.5" fill="#1C2031" stroke="white" stroke-linecap="round"/>
<circle cx="21.5833" cy="15.75" r="1.75" fill="#1C2031" stroke="white" stroke-linecap="round"/>
<path d="M20.9223 24.8C20.67 23.4004 19.8157 22.1251 18.5187 21.2115C17.2217 20.298 15.5704 19.8085 13.8724 19.8343C12.1744 19.8601 10.5456 20.3994 9.28942 21.3517C8.03322 22.3041 7.23533 23.6045 7.04439 25.0108" stroke="white"/>
</svg>
