<svg width="24" height="24" viewBox="0 0 24 24" fill="none" xmlns="http://www.w3.org/2000/svg">
<path d="M18.955 2.04511C19.2478 2.338 19.2478 2.81288 18.955 3.10577L18.4045 3.65622C21.6935 7.4873 21.5235 13.2652 17.8943 16.8944C16.1813 18.6073 13.9897 19.5496 11.75 19.7214V21.2501H13.5C13.9142 21.2501 14.25 21.5858 14.25 22.0001C14.25 22.4143 13.9142 22.7501 13.5 22.7501H8.5C8.08579 22.7501 7.75 22.4143 7.75 22.0001C7.75 21.5858 8.08579 21.2501 8.5 21.2501H10.25V19.7213C8.24373 19.5674 6.27594 18.7952 4.65616 17.4046L4.10571 17.955C3.81282 18.2479 3.33794 18.2479 3.04505 17.955C2.75216 17.6621 2.75216 17.1872 3.04505 16.8944L3.75216 16.1872C4.24759 15.6918 5.01746 15.7171 5.49977 16.1494C7.06174 17.5492 9.02922 18.2494 10.997 18.2501L11 18.2501L11.0032 18.2501C13.1135 18.2492 15.2236 17.4437 16.8336 15.8337C19.9465 12.7208 20.0518 7.73859 17.1493 4.49983C16.7171 4.01752 16.6917 3.24765 17.1872 2.75222L17.8943 2.04511C18.1872 1.75222 18.6621 1.75222 18.955 2.04511Z" fill="black"/>
<path fill-rule="evenodd" clip-rule="evenodd" d="M4.25 10.0001C4.25 6.27214 7.27208 3.25006 11 3.25006C14.7279 3.25006 17.75 6.27214 17.75 10.0001C17.75 13.728 14.7279 16.7501 11 16.7501C7.27208 16.7501 4.25 13.728 4.25 10.0001ZM11 4.75006C8.1005 4.75006 5.75 7.10057 5.75 10.0001C5.75 10.3349 5.78135 10.6624 5.84126 10.9798C6.25258 10.5313 6.84345 10.2501 7.5 10.2501C8.74264 10.2501 9.75 11.2574 9.75 12.5001C9.75 13.4224 9.19501 14.2151 8.40076 14.5625C9.16712 15 10.0544 15.2501 11 15.2501C13.5434 15.2501 15.6643 13.4415 16.147 11.0403C15.4784 12.0694 14.3187 12.7501 13 12.7501C10.9289 12.7501 9.25 11.0711 9.25 9.00006C9.25 6.92899 10.9289 5.25006 13 5.25006C13.0865 5.25006 13.1723 5.25299 13.2573 5.25875C12.5735 4.93262 11.8081 4.75006 11 4.75006ZM10.75 9.00006C10.75 7.75742 11.7574 6.75006 13 6.75006C14.2426 6.75006 15.25 7.75742 15.25 9.00006C15.25 10.2427 14.2426 11.2501 13 11.2501C11.7574 11.2501 10.75 10.2427 10.75 9.00006ZM7.5 11.7501C7.08579 11.7501 6.75 12.0858 6.75 12.5001C6.75 12.9143 7.08579 13.2501 7.5 13.2501C7.91421 13.2501 8.25 12.9143 8.25 12.5001C8.25 12.0858 7.91421 11.7501 7.5 11.7501Z" fill="black"/>
</svg>
