<svg width="25" height="24" viewBox="0 0 25 24" fill="none" xmlns="http://www.w3.org/2000/svg">
<g clip-path="url(#clip0_83:5304)">
<path d="M0.577 12.0001C0.606 11.9071 0.619 11.8101 0.652 11.7181L3.35 4.29106C3.70233 3.32736 4.34196 2.49502 5.18248 1.90648C6.023 1.31793 7.02391 1.00155 8.05 1.00006H16.45C17.4762 1.00148 18.4773 1.31795 19.3179 1.90671C20.1584 2.49546 20.798 3.32809 21.15 4.29206L23.85 11.7181C23.883 11.8101 23.896 11.9071 23.925 12.0001H0.577ZM20.25 14.0001V16.0001C20.25 16.2653 20.1446 16.5196 19.9571 16.7072C19.7696 16.8947 19.5152 17.0001 19.25 17.0001C18.9848 17.0001 18.7304 16.8947 18.5429 16.7072C18.3554 16.5196 18.25 16.2653 18.25 16.0001V14.0001H6.25V16.0001C6.25 16.2653 6.14464 16.5196 5.95711 16.7072C5.76957 16.8947 5.51522 17.0001 5.25 17.0001C4.98478 17.0001 4.73043 16.8947 4.54289 16.7072C4.35536 16.5196 4.25 16.2653 4.25 16.0001V14.0001H0.25V16.0001C0.251278 16.9718 0.535705 17.9222 1.0685 18.7348C1.60129 19.5475 2.35936 20.1874 3.25 20.5761V22.0001C3.25 22.5305 3.46071 23.0392 3.83579 23.4143C4.21086 23.7893 4.71957 24.0001 5.25 24.0001C5.78043 24.0001 6.28914 23.7893 6.66421 23.4143C7.03929 23.0392 7.25 22.5305 7.25 22.0001V21.0001H17.25V22.0001C17.25 22.5305 17.4607 23.0392 17.8358 23.4143C18.2109 23.7893 18.7196 24.0001 19.25 24.0001C19.7804 24.0001 20.2891 23.7893 20.6642 23.4143C21.0393 23.0392 21.25 22.5305 21.25 22.0001V20.5761C22.1406 20.1874 22.8987 19.5475 23.4315 18.7348C23.9643 17.9222 24.2487 16.9718 24.25 16.0001V14.0001H20.25Z" fill="#898989"/>
</g>
<defs>
<clipPath id="clip0_83:5304">
<rect width="24" height="24" fill="white" transform="translate(0.25)"/>
</clipPath>
</defs>
</svg>
