<svg width="25" height="24" viewBox="0 0 25 24" fill="none" xmlns="http://www.w3.org/2000/svg">
<g clip-path="url(#clip0_83:5308)">
<path d="M13.3871 16.573L16.951 24H7.68805L11.6211 16.562C11.6995 16.3933 11.8247 16.2507 11.9819 16.1511C12.1391 16.0516 12.3215 15.9992 12.5076 16.0004C12.6936 16.0016 12.8754 16.0562 13.0313 16.1577C13.1873 16.2592 13.3107 16.4033 13.3871 16.573ZM24.022 16.868L17.035 2.90001C16.6346 2.03793 15.9966 1.30787 15.1961 0.795409C14.3955 0.282944 13.4654 0.00931066 12.5148 0.00658189C11.5643 0.00385312 10.6326 0.272142 9.8291 0.780002C9.02558 1.28786 8.38347 2.01425 7.97805 2.87401L0.970051 16.9C0.618758 17.6557 0.46214 18.4874 0.514464 19.3191C0.566788 20.1509 0.826391 20.9563 1.26962 21.6621C1.71286 22.3678 2.32563 22.9515 3.05213 23.3598C3.77862 23.7682 4.59574 23.9882 5.42905 24L9.82905 15.678C10.0744 15.1725 10.4582 14.747 10.9357 14.4509C11.4133 14.1548 11.965 14.0002 12.5269 14.0051C13.0888 14.01 13.6378 14.1742 14.11 14.4787C14.5823 14.7831 14.9586 15.2153 15.1951 15.725L19.1691 24H19.5C20.3425 23.9999 21.1712 23.7869 21.9093 23.3809C22.6475 22.9748 23.271 22.3889 23.7221 21.6774C24.1732 20.9659 24.4372 20.152 24.4897 19.3112C24.5421 18.4704 24.3813 17.63 24.022 16.868Z" fill="#1E1E1E" fill-opacity="0.5"/>
</g>
<defs>
<clipPath id="clip0_83:5308">
<rect width="24" height="24" fill="white" transform="translate(0.5)"/>
</clipPath>
</defs>
</svg>
