<svg width="28" height="28" viewBox="0 0 28 28" fill="none" xmlns="http://www.w3.org/2000/svg">
<path fill-rule="evenodd" clip-rule="evenodd" d="M3.50489 3.50489C2.33331 4.67646 2.33331 6.56208 2.33331 10.3333V17.6666C2.33331 21.4379 2.33331 23.3235 3.50489 24.4951C4.264 25.2542 5.32288 25.5214 7.00025 25.6155C7.03319 22.4174 10.1545 19.8333 14 19.8333C17.8455 19.8333 20.9668 22.4174 20.9997 25.6155C22.6771 25.5214 23.736 25.2542 24.4951 24.4951C25.6666 23.3235 25.6666 21.4379 25.6666 17.6666V10.3333C25.6666 6.56208 25.6666 4.67646 24.4951 3.50489C23.3235 2.33331 21.4379 2.33331 17.6666 2.33331H10.3333C6.56208 2.33331 4.67646 2.33331 3.50489 3.50489ZM14 15.1666C15.933 15.1666 17.5 13.5996 17.5 11.6666C17.5 9.73365 15.933 8.16665 14 8.16665C12.067 8.16665 10.5 9.73365 10.5 11.6666C10.5 13.5996 12.067 15.1666 14 15.1666Z" fill="#8C9BD9"/>
<path d="M20.9308 24.8486C20.696 23.4671 19.8747 22.2014 18.6159 21.2813C17.3571 20.3612 15.7442 19.8475 14.0699 19.8336C12.3955 19.8197 10.7706 20.3064 9.49005 21.2054C8.20946 22.1044 7.35799 23.3561 7.09014 24.7335" stroke="white" stroke-width="1.2"/>
<ellipse cx="14" cy="11.6667" rx="3.5" ry="3.5" stroke="white" stroke-width="1.2" stroke-linecap="round"/>
<rect x="2.93331" y="2.93331" width="22.1333" height="22.1333" rx="3.4" stroke="white" stroke-width="1.2"/>
</svg>
